<svg width="80" height="86" viewBox="0 0 80 86" fill="none" xmlns="http://www.w3.org/2000/svg">
<g clip-path="url(#clip0_1143_13743)">
<path d="M8.82172 -0.152897C9.22339 -0.1545 9.62506 -0.156605 10.0267 -0.15917C11.1125 -0.164534 12.1981 -0.162477 13.2839 -0.158723C14.423 -0.155721 15.5621 -0.158509 16.7012 -0.16036C18.6137 -0.162506 20.5262 -0.159685 22.4388 -0.154051C24.6463 -0.147623 26.8537 -0.149705 29.0612 -0.156209C30.9604 -0.161579 32.8596 -0.162321 34.7589 -0.159234C35.8915 -0.157398 37.0241 -0.157133 38.1567 -0.16105C39.2218 -0.164475 40.2868 -0.162071 41.3519 -0.155268C41.7415 -0.153713 42.1312 -0.154142 42.5208 -0.156759C45.07 -0.172297 46.9598 0.0812157 48.969 1.90483C50.9721 4.28911 50.9106 7.0923 50.8371 10.1002C50.8316 10.4971 50.8265 10.8939 50.8221 11.2908C50.8101 12.2527 50.7912 13.2141 50.7684 14.1758C50.9016 14.1749 51.0347 14.174 51.172 14.1731C54.4171 14.1522 57.6622 14.1366 60.9074 14.1268C62.4768 14.122 64.0461 14.1153 65.6155 14.1045C66.9838 14.095 68.3522 14.089 69.7206 14.0869C70.4447 14.0856 71.1687 14.0823 71.8928 14.0759C72.7025 14.069 73.5121 14.0681 74.3218 14.0685C74.56 14.0651 74.7983 14.0617 75.0437 14.0582C76.6395 14.0675 77.8809 14.2565 79.0411 15.5106C79.9943 16.7741 80.1895 17.702 80.1666 19.3064C80.1687 19.5306 80.1707 19.7547 80.1729 19.9856C80.1781 20.7329 80.174 21.4799 80.1698 22.2272C80.1716 22.7644 80.1739 23.3017 80.1768 23.8389C80.1828 25.2956 80.1805 26.7521 80.1763 28.2087C80.173 29.734 80.1761 31.2593 80.1781 32.7845C80.1807 35.5099 80.1766 38.2351 80.1699 40.9604C80.164 43.4292 80.165 45.8979 80.1711 48.3666C80.1782 51.2367 80.1808 54.1066 80.1769 56.9766C80.1748 58.4947 80.1746 60.0128 80.1789 61.5309C80.1827 62.9582 80.1801 64.3854 80.1725 65.8127C80.1707 66.3362 80.1712 66.8596 80.1741 67.3831C80.1777 68.0984 80.1732 68.8133 80.1666 69.5286C80.1696 69.7351 80.1725 69.9416 80.1755 70.1543C80.1483 71.6867 79.6848 72.6286 78.6805 73.7142C77.3245 74.7971 75.9632 74.79 74.3218 74.7666C74.0665 74.7667 73.8111 74.7669 73.548 74.767C72.7084 74.7663 71.869 74.759 71.0294 74.7516C70.4455 74.7498 69.8617 74.7484 69.2778 74.7475C67.9009 74.7446 66.524 74.7369 65.1472 74.7274C63.5787 74.7168 62.0102 74.7116 60.4417 74.7068C57.2172 74.697 53.9928 74.6804 50.7684 74.6593C50.7708 74.8223 50.7732 74.9854 50.7756 75.1533C50.7851 75.8989 50.7909 76.6445 50.7967 77.3902C50.8005 77.6466 50.8043 77.9031 50.8082 78.1673C50.8221 80.5404 50.4758 82.2756 48.969 84.0951C46.7855 86.0788 44.6866 86.1712 41.9459 86.1528C41.5442 86.1544 41.1425 86.1565 40.7409 86.1591C39.6551 86.1644 38.5695 86.1624 37.4837 86.1586C36.3446 86.1556 35.2055 86.1584 34.0664 86.1603C32.1538 86.1624 30.2413 86.1596 28.3288 86.154C26.1213 86.1475 23.9139 86.1496 21.7064 86.1561C19.8071 86.1615 17.9079 86.1622 16.0087 86.1591C14.8761 86.1573 13.7435 86.157 12.6109 86.161C11.5458 86.1644 10.4808 86.162 9.4157 86.1552C9.02607 86.1536 8.63642 86.1541 8.24679 86.1567C5.83645 86.1714 4.02536 85.9734 2.06047 84.3396C0.610357 82.7003 -0.0275375 81.301 -0.0291015 79.0222C-0.0298102 78.7607 -0.0305185 78.4991 -0.0312487 78.2297C-0.0309083 77.9436 -0.0305681 77.6575 -0.0302174 77.3627C-0.0307154 77.0579 -0.0312135 76.753 -0.0317265 76.4389C-0.0330711 75.593 -0.0330412 74.7472 -0.0327821 73.9014C-0.0327372 72.989 -0.0339506 72.0766 -0.0349929 71.1642C-0.0368185 69.377 -0.0374225 67.5898 -0.037545 65.8025C-0.0376494 64.35 -0.0381006 62.8975 -0.0387976 61.445C-0.040733 57.3277 -0.0417475 53.2104 -0.0415827 49.0931C-0.0415739 48.8711 -0.0415649 48.6492 -0.0415559 48.4205C-0.0415469 48.1982 -0.0415383 47.976 -0.0415291 47.747C-0.0414397 44.144 -0.0435436 40.5409 -0.0466416 36.9378C-0.0497968 33.239 -0.0513161 29.5402 -0.0511262 25.8414C-0.0510532 23.7645 -0.0516587 21.6876 -0.054022 19.6107C-0.0560209 17.8426 -0.0565037 16.0746 -0.0550096 14.3066C-0.0542909 13.4045 -0.0542832 12.5023 -0.0561859 11.6002C-0.0582267 10.6225 -0.0568676 9.64485 -0.0551681 8.66717C-0.0562985 8.38161 -0.057429 8.09605 -0.0585938 7.80183C-0.057583 7.53967 -0.0565724 7.27751 -0.0555311 7.0074C-0.0555789 6.78178 -0.0556261 6.55616 -0.0556753 6.32371C0.124002 4.18307 1.13985 2.52583 2.63653 1.18128C4.52802 -0.297534 6.59248 -0.167872 8.82172 -0.152897ZM3.54313 4.72523C2.88958 5.71708 2.82891 6.43614 2.82743 7.63459C2.82658 7.89058 2.82574 8.14657 2.82487 8.41032C2.82506 8.69142 2.82525 8.97252 2.82545 9.26214C2.82479 9.56087 2.82414 9.85959 2.82347 10.1674C2.8217 10.9971 2.8213 11.8269 2.82114 12.6566C2.82073 13.5513 2.81907 14.4459 2.81759 15.3406C2.81461 17.2971 2.81328 19.2536 2.81232 21.2101C2.81171 22.4316 2.81078 23.6531 2.80979 24.8746C2.80711 28.2563 2.80484 31.6379 2.8041 35.0196C2.80405 35.2361 2.804 35.4525 2.80395 35.6755C2.80391 35.8924 2.80386 36.1094 2.80381 36.3329C2.80371 36.7725 2.80361 37.2122 2.80351 37.6518C2.80347 37.8699 2.80342 38.0879 2.80337 38.3126C2.8025 41.8468 2.79866 45.3809 2.79355 48.9151C2.78833 52.5431 2.78559 56.1712 2.78534 59.7992C2.78514 61.8364 2.78387 63.8736 2.77988 65.9108C2.7765 67.6453 2.77537 69.3799 2.77719 71.1144C2.77805 71.9994 2.77784 72.8843 2.77476 73.7693C2.77145 74.7288 2.77325 75.6882 2.77555 76.6478C2.77378 76.9273 2.772 77.2068 2.77018 77.4948C2.77942 79.1394 2.84475 80.4518 3.8934 81.738C4.02259 81.8482 4.15178 81.9585 4.28488 82.0721C4.41407 82.186 4.54326 82.2999 4.67637 82.4172C5.50763 83.0224 6.29444 82.9593 7.26757 82.9617C7.4268 82.9624 7.58603 82.9631 7.75009 82.9638C8.28508 82.9659 8.82007 82.9662 9.35507 82.9666C9.73809 82.9677 10.1211 82.9689 10.5041 82.9701C11.5459 82.9733 12.5876 82.9748 13.6293 82.9758C14.2801 82.9765 14.9309 82.9775 15.5817 82.9785C17.6178 82.9818 19.6539 82.9841 21.69 82.985C24.0406 82.986 26.391 82.9902 28.7415 82.997C30.5582 83.0021 32.3749 83.0045 34.1916 83.0048C35.2767 83.0051 36.3617 83.0065 37.4468 83.0107C38.4678 83.0146 39.4888 83.0151 40.5099 83.013C40.8842 83.0128 41.2585 83.0139 41.6328 83.0162C42.1448 83.0192 42.6566 83.0178 43.1686 83.0154C43.5979 83.0159 43.5979 83.0159 44.0359 83.0164C45.2516 82.8826 46.3107 82.4755 47.1146 81.4371C47.2205 81.3064 47.3265 81.1758 47.4356 81.0412C48.1091 79.79 47.9378 78.2163 47.925 76.8152C47.9235 76.5036 47.9235 76.5036 47.922 76.1858C47.9194 75.6769 47.9155 75.1681 47.9113 74.6593C47.1135 74.6593 46.3157 74.6593 45.4937 74.6593C45.4801 75.0101 45.4665 75.361 45.4525 75.7225C45.3516 76.8794 45.0355 77.6024 44.4077 78.5355C44.1345 78.9023 44.1345 78.9023 44.175 79.3846C43.0806 79.8615 42.2432 80.1233 41.056 80.1281C40.771 80.1298 40.486 80.1315 40.1924 80.1333C39.8758 80.1339 39.5592 80.1346 39.2427 80.1352C38.9098 80.1367 38.5769 80.1382 38.2441 80.1399C37.1501 80.1449 36.0562 80.1473 34.9623 80.1497C34.5855 80.1506 34.2087 80.1516 33.8318 80.1526C32.0613 80.1571 30.2907 80.1604 28.5202 80.1624C26.4777 80.1647 24.4352 80.1709 22.3927 80.1805C20.8132 80.1876 19.2338 80.1911 17.6543 80.1919C16.7113 80.1924 15.7684 80.1945 14.8254 80.2005C13.9377 80.206 13.05 80.207 12.1623 80.2046C11.8373 80.2045 11.5124 80.2059 11.1874 80.2092C9.43276 80.2258 8.0681 80.2343 6.59258 79.1483C6.21227 78.6104 5.98075 78.1151 5.71346 77.4945C5.64093 77.3385 5.5684 77.1826 5.49368 77.0219C5.47235 76.6506 5.46489 76.2784 5.46418 75.9064C5.4632 75.6696 5.46222 75.4328 5.46121 75.1888C5.46125 74.9267 5.46129 74.6646 5.46133 74.3946C5.46052 74.1177 5.45971 73.8408 5.45888 73.5554C5.45687 72.7843 5.45586 72.0133 5.45528 71.2422C5.45442 70.4114 5.45232 69.5807 5.4504 68.7499C5.44605 66.7422 5.44384 64.7346 5.44189 62.7269C5.44092 61.7817 5.43974 60.8365 5.43859 59.8912C5.43485 56.7493 5.43167 53.6075 5.43008 50.4656C5.42966 49.6499 5.42923 48.8343 5.4288 48.0186C5.4287 47.8159 5.42859 47.6131 5.42848 47.4043C5.42666 44.1208 5.42109 40.8373 5.41395 37.5538C5.40668 34.1834 5.40272 30.8131 5.40202 27.4427C5.40155 25.55 5.39962 23.6575 5.39401 21.7648C5.38924 20.1528 5.38747 18.5408 5.38961 16.9287C5.3906 16.1064 5.39019 15.2842 5.38592 14.4619C5.38204 13.5696 5.38358 12.6776 5.38648 11.7853C5.38407 11.5264 5.38166 11.2675 5.37917 11.0007C5.39083 9.51407 5.5349 8.31045 6.3728 7.08787C7.29198 6.30141 8.05791 5.88073 9.23193 5.86848C9.40803 5.86621 9.58413 5.86394 9.76556 5.8616C9.95513 5.8606 10.1447 5.85959 10.34 5.85856C10.536 5.85721 10.7319 5.85587 10.9338 5.85448C11.3485 5.85225 11.7633 5.8507 12.178 5.84979C12.8104 5.8475 13.4426 5.84017 14.075 5.83272C14.4783 5.83118 14.8817 5.82994 15.2851 5.82903C15.4733 5.82611 15.6615 5.82319 15.8555 5.82019C17.1948 5.82552 18.1383 6.04335 19.1307 7.09024C19.2785 7.25544 19.4262 7.42064 19.5785 7.59085C21.1244 8.94755 22.8938 8.78092 24.7974 8.73889C25.4119 8.72694 26.0244 8.734 26.6389 8.7431C28.9576 8.82425 28.9576 8.82425 30.9384 7.72375C31.0408 7.58322 31.1432 7.44268 31.2486 7.29789C32.112 6.33192 33.1757 5.86691 34.4116 5.78802C34.7751 5.78344 35.1388 5.7841 35.5023 5.78934C35.6967 5.789 35.891 5.78865 36.0913 5.7883C36.4995 5.78869 36.9077 5.7914 37.3159 5.79632C37.9386 5.80318 38.5609 5.80118 39.1836 5.79811C39.5819 5.79958 39.9803 5.80157 40.3786 5.80411C40.6558 5.80307 40.6558 5.80307 40.9386 5.80201C42.0438 5.82097 42.758 6.00731 43.7354 6.61534C43.8805 6.61534 44.0255 6.61534 44.175 6.61534C44.3215 6.93036 44.468 7.24538 44.6146 7.5604C44.7256 7.75044 44.8367 7.94049 44.9511 8.13629C45.4013 9.31019 45.3986 10.4071 45.425 11.6655C45.4325 11.907 45.44 12.1485 45.4478 12.3973C45.4658 12.9901 45.4801 13.5829 45.4937 14.1758C46.2915 14.1758 47.0893 14.1758 47.9113 14.1758C47.9222 13.163 47.9301 12.1502 47.9354 11.1374C47.9376 10.7935 47.9406 10.4495 47.9444 10.1056C47.9498 9.60881 47.9523 9.11209 47.9542 8.61528C47.9576 8.16801 47.9576 8.16801 47.9612 7.7117C47.8648 6.05002 47.4719 4.96175 46.3728 3.78018C45.3563 3.11459 44.595 2.98216 43.4124 2.97979C43.2517 2.97852 43.091 2.97725 42.9254 2.97594C42.3894 2.97257 41.8535 2.97424 41.3175 2.97592C40.9322 2.97458 40.5469 2.97293 40.1616 2.97101C39.1168 2.96677 38.0719 2.96705 37.0271 2.9684C36.1543 2.96913 35.2815 2.96769 34.4087 2.96626C32.3494 2.96294 30.2902 2.96331 28.231 2.966C26.1076 2.96872 23.9844 2.96539 21.861 2.95906C20.0368 2.95382 18.2127 2.95225 16.3885 2.95364C15.2995 2.95444 14.2105 2.95387 13.1215 2.9498C12.0974 2.94615 11.0734 2.94708 10.0492 2.95153C9.67387 2.9524 9.29848 2.95167 8.9231 2.94919C8.40967 2.94607 7.89653 2.9488 7.38311 2.95297C6.95264 2.95304 6.95264 2.95304 6.51347 2.95312C5.32848 3.1283 4.29956 3.69336 3.54313 4.72523ZM8.52764 9.05639C7.88639 10.0756 8.01019 11.1209 8.01941 12.3235C8.01803 12.5957 8.01666 12.8679 8.01525 13.1483C8.01235 13.9041 8.0134 14.6597 8.01612 15.4154C8.0181 16.2303 8.01504 17.0453 8.01262 17.8602C8.00871 19.4567 8.00955 21.0532 8.0121 22.6497C8.01408 23.947 8.01436 25.2443 8.0134 26.5416C8.01326 26.7261 8.01313 26.9106 8.01299 27.1007C8.01271 27.4755 8.01242 27.8504 8.01214 28.2252C8.00963 31.7413 8.01251 35.2573 8.01723 38.7734C8.02116 41.7916 8.02048 44.8097 8.01643 47.8279C8.01172 51.3313 8.00987 54.8346 8.01257 58.338C8.01285 58.7114 8.01313 59.0849 8.0134 59.4583C8.01353 59.6421 8.01367 59.8258 8.01381 60.0151C8.01457 61.3111 8.01329 62.6072 8.01122 63.9032C8.00876 65.4822 8.00942 67.0612 8.0141 68.6402C8.01642 69.4462 8.01731 70.252 8.01441 71.058C8.01202 71.9309 8.01501 72.8036 8.01941 73.6765C8.01744 73.9323 8.01548 74.1881 8.01346 74.4517C8.01501 75.7657 8.01501 75.7657 8.49364 76.943C9.15426 77.3461 9.59347 77.3771 10.3532 77.3782C10.6287 77.3809 10.9041 77.3835 11.188 77.3863C11.4927 77.3844 11.7974 77.3825 12.1021 77.3805C12.4234 77.3818 12.7448 77.3834 13.0661 77.3855C13.9384 77.3898 14.8106 77.3881 15.683 77.3851C16.5957 77.3827 17.5084 77.385 18.4211 77.3865C19.9538 77.3882 21.4866 77.3859 23.0193 77.3814C24.7916 77.3763 26.5639 77.3779 28.3362 77.3831C29.8576 77.3874 31.379 77.388 32.9004 77.3855C33.8092 77.3841 34.7179 77.3839 35.6267 77.387C36.4811 77.3897 37.3353 77.3878 38.1897 77.3824C38.5033 77.3811 38.817 77.3815 39.1306 77.3836C39.5585 77.3861 39.9865 77.3823 40.4144 77.3782C40.6539 77.3778 40.8935 77.3775 41.1403 77.3771C41.911 77.2286 42.174 76.9835 42.6365 76.3131C42.71 75.4466 42.71 75.4466 42.6365 74.6593C42.3789 74.6584 42.1212 74.6576 41.8557 74.6567C39.424 74.6479 36.9924 74.6343 34.5607 74.6158C33.3107 74.6065 32.0607 74.5989 30.8106 74.5953C29.6035 74.5917 28.3966 74.5835 27.1896 74.5723C26.7297 74.5688 26.2699 74.5669 25.81 74.5667C25.1645 74.5661 24.5192 74.5597 23.8737 74.552C23.6847 74.5532 23.4958 74.5544 23.3012 74.5556C21.7528 74.527 20.5578 74.0939 19.4635 72.8873C18.8306 71.7988 18.8683 70.755 18.8691 69.4988C18.8683 69.3132 18.8676 69.1275 18.8668 68.9362C18.8652 68.5339 18.864 68.1315 18.8632 67.7292C18.8616 67.0927 18.8582 66.4563 18.8541 65.8199C18.8426 64.0107 18.832 62.2014 18.8286 60.3922C18.8264 59.285 18.82 58.1779 18.8108 57.0708C18.8081 56.6487 18.8069 56.2266 18.8074 55.8045C18.8079 55.215 18.8031 54.6259 18.797 54.0365C18.7984 53.8615 18.7999 53.6866 18.8014 53.5064C18.7881 52.7253 18.7761 52.321 18.2611 51.746C17.8207 51.471 17.8207 51.471 17.3618 51.5055C17.3618 51.3495 17.3618 51.1936 17.3618 51.0329C16.7823 50.4663 16.7823 50.4663 16.0431 50.3241C16.0431 50.1682 16.0431 50.0123 16.0431 49.8516C15.4636 49.285 15.4636 49.285 14.7244 49.1428C14.7244 48.9869 14.7244 48.8309 14.7244 48.6703C14.1449 48.1037 14.1449 48.1037 13.4058 47.9615C13.4058 47.8056 13.4058 47.6496 13.4058 47.489C13.0599 47.1597 12.7003 46.847 12.3343 46.5439C10.7866 45.2545 10.7866 45.2545 10.6722 44.4471C10.7684 43.7087 10.7684 43.7087 11.3179 43.1772C11.4992 43.0407 11.6805 42.9043 11.8673 42.7637C11.8673 42.6078 11.8673 42.4518 11.8673 42.2912C11.9903 42.2321 12.1132 42.173 12.2399 42.1121C12.8297 41.7704 13.302 41.3633 13.8179 40.9031C14.0278 40.7161 14.2377 40.5291 14.454 40.3365C15.3873 39.4935 16.3109 38.6381 17.2308 37.7783C18.194 36.8823 18.194 36.8823 18.6805 36.6208C18.6823 36.3837 18.684 36.1466 18.6859 35.9023C18.7029 33.667 18.7222 31.4317 18.7437 29.1964C18.7547 28.0473 18.7648 26.8981 18.7732 25.749C18.7813 24.6398 18.7915 23.5307 18.8031 22.4217C18.8072 21.9986 18.8105 21.5756 18.8131 21.1525C18.8168 20.5598 18.8232 19.9671 18.8302 19.3743C18.8307 19.1996 18.8311 19.0249 18.8316 18.8449C18.8551 17.2873 19.2036 16.2419 20.219 15.1208C21.4533 14.4154 22.465 14.3074 23.8487 14.3099C24.0526 14.3075 24.2564 14.3051 24.4665 14.3026C25.136 14.2955 25.8054 14.2933 26.475 14.2911C26.9409 14.2872 27.4068 14.2829 27.8727 14.2783C29.0957 14.2671 30.3188 14.26 31.5418 14.2539C32.7912 14.2468 34.0405 14.2358 35.2898 14.2252C37.7387 14.2048 40.1876 14.1889 42.6365 14.1758C42.6621 13.4474 42.6777 12.7191 42.6915 11.9903C42.6988 11.7842 42.7062 11.578 42.7138 11.3655C42.7416 10.1448 42.7416 10.1448 42.2422 9.07862C41.5381 8.58931 40.8637 8.59288 40.0507 8.59128C39.8854 8.5887 39.72 8.58611 39.5497 8.58345C39.2002 8.57971 38.8507 8.57847 38.5012 8.57957C37.9706 8.57929 37.4414 8.56519 36.9111 8.55021C34.8043 8.48955 34.8043 8.48955 32.9971 9.53449C32.7642 9.81886 32.534 10.1058 32.3069 10.3956C31.465 11.1458 30.8115 11.3693 29.7259 11.3787C29.5146 11.381 29.3033 11.3832 29.0856 11.3856C28.7436 11.3871 28.7436 11.3871 28.3946 11.3886C28.0421 11.3906 28.0421 11.3906 27.6826 11.3927C27.185 11.3949 26.6875 11.3965 26.19 11.3974C25.4303 11.3997 24.6707 11.407 23.911 11.4144C23.4275 11.416 22.944 11.4172 22.4605 11.4181C22.1205 11.4225 22.1205 11.4225 21.7736 11.427C20.5613 11.423 19.7386 11.3369 18.6805 10.6318C18.4629 10.5539 18.2453 10.4759 18.0212 10.3956C17.9124 10.0447 17.9124 10.0447 17.8014 9.68677C17.6563 9.68677 17.5113 9.68677 17.3618 9.68677C17.253 9.33592 17.253 9.33592 17.142 8.97798C16.4653 8.61423 15.7509 8.69337 15.0078 8.68542C14.7557 8.68256 14.7557 8.68256 14.4986 8.67964C14.1427 8.67637 13.7869 8.67384 13.4311 8.67198C12.8874 8.66791 12.344 8.65754 11.8003 8.64712C11.4546 8.64473 11.1089 8.64271 10.7633 8.64112C10.6009 8.63698 10.4386 8.63285 10.2713 8.62858C9.59754 8.63164 9.10902 8.67724 8.52764 9.05639ZM21.5376 17.956C21.4296 18.6301 21.3967 19.1652 21.4101 19.8395C21.4096 20.0313 21.4091 20.2231 21.4085 20.4207C21.408 20.8372 21.4101 21.2538 21.4143 21.6703C21.4209 22.3297 21.4207 22.9889 21.4187 23.6484C21.4151 25.2864 21.4233 26.9244 21.4311 28.5624C21.4373 29.9459 21.439 31.3293 21.4347 32.7128C21.4346 33.3622 21.441 34.0113 21.4477 34.6606C21.4472 35.0596 21.4465 35.4585 21.4453 35.8575C21.449 36.0377 21.4526 36.2179 21.4563 36.4036C21.4464 37.3447 21.3589 37.7491 20.7919 38.4827C20.6028 38.648 20.4137 38.8132 20.219 38.9835C20.0529 39.1504 19.8869 39.3173 19.7159 39.4892C18.0312 41.1246 16.2776 42.6586 14.5047 44.1813C14.6497 44.4931 14.7948 44.805 14.9442 45.1263C15.0893 45.1263 15.2343 45.1263 15.3838 45.1263C15.3838 45.2823 15.3838 45.4382 15.3838 45.5989C15.9633 46.1655 15.9633 46.1655 16.7025 46.3076C16.7025 46.4636 16.7025 46.6195 16.7025 46.7802C17.282 47.3468 17.282 47.3468 18.0212 47.489C18.0212 47.6449 18.0212 47.8008 18.0212 47.9615C18.3535 48.2758 18.6995 48.5735 19.0514 48.8623C19.4448 49.1862 19.8339 49.5162 20.219 49.8516C20.5051 50.0997 20.5051 50.0997 20.797 50.3527C21.4636 51.2232 21.4684 51.8989 21.4488 52.9776C21.4502 53.2665 21.4502 53.2665 21.4515 53.5613C21.4527 53.978 21.4514 54.3948 21.4479 54.8116C21.4423 55.471 21.4433 56.13 21.4461 56.7894C21.4506 58.1882 21.4463 59.5868 21.4415 60.9855C21.4368 62.6081 21.4358 64.2305 21.4416 65.853C21.4423 66.5031 21.4377 67.1531 21.4327 67.8032C21.4333 68.2007 21.434 68.5981 21.4351 68.9955C21.4323 69.1767 21.4294 69.3579 21.4265 69.5445C21.4287 70.4863 21.4287 70.4863 21.8499 71.2798C22.7325 71.7595 23.5852 71.6853 24.5608 71.6779C24.8908 71.6795 24.8908 71.6795 25.2275 71.6812C25.9669 71.6841 26.7061 71.6818 27.4455 71.6796C27.9747 71.6805 28.5039 71.6818 29.0331 71.6833C30.3226 71.6862 31.612 71.6858 32.9014 71.6838C33.9493 71.6822 34.9971 71.6819 36.045 71.6827C36.2686 71.6829 36.2686 71.6829 36.4967 71.683C36.7995 71.6833 37.1023 71.6835 37.4052 71.6837C40.2455 71.6858 43.0858 71.6834 45.9261 71.6796C48.3639 71.6765 50.8016 71.677 53.2393 71.6803C56.0694 71.6841 58.8995 71.6856 61.7296 71.6834C62.0313 71.6832 62.333 71.6829 62.6347 71.6827C62.7832 71.6826 62.9316 71.6825 63.0846 71.6824C64.1313 71.6818 65.178 71.6828 66.2247 71.6845C67.6333 71.6867 69.0417 71.6851 70.4503 71.681C70.968 71.6801 71.4858 71.6803 72.0036 71.6819C72.7087 71.6838 73.4138 71.6814 74.1189 71.6779C74.4284 71.6802 74.4284 71.6802 74.7442 71.6827C75.5027 71.6752 76.1166 71.6471 76.8294 71.3584C77.3433 70.5705 77.2634 69.7165 77.2551 68.7894C77.2574 68.4651 77.2574 68.4651 77.2598 68.1342C77.2638 67.4067 77.2615 66.6793 77.2593 65.9517C77.2608 65.4313 77.2628 64.911 77.265 64.3906C77.27 62.975 77.2693 61.5595 77.2674 60.1438C77.2662 58.9636 77.2678 57.7834 77.2694 56.6032C77.2734 53.6606 77.272 50.7181 77.2681 47.7755C77.2649 45.2185 77.2681 42.6615 77.2744 40.1045C77.2809 37.4803 77.2832 34.8561 77.2812 32.2319C77.2801 30.7581 77.2806 29.2843 77.2851 27.8104C77.2891 26.425 77.2878 25.0397 77.2824 23.6543C77.2813 23.1448 77.2821 22.6354 77.2849 22.1259C77.2883 21.4323 77.2851 20.7392 77.2801 20.0456C77.2827 19.8423 77.2853 19.6389 77.288 19.4293C77.2757 18.5962 77.2645 18.0945 76.7185 17.4766C75.7652 17.1528 74.8855 17.1495 73.8909 17.1572C73.6726 17.1561 73.4544 17.155 73.2295 17.1539C72.4974 17.151 71.7654 17.1533 71.0333 17.1555C70.5087 17.1545 69.9842 17.1533 69.4596 17.1517C68.1823 17.1488 66.9051 17.1493 65.6278 17.1513C64.5897 17.1529 63.5516 17.1531 62.5135 17.1524C62.3657 17.1523 62.218 17.1521 62.0657 17.152C61.7656 17.1518 61.4654 17.1516 61.1652 17.1513C58.3507 17.1493 55.5361 17.1516 52.7216 17.1555C50.3067 17.1586 47.8918 17.1581 45.4768 17.1548C42.6723 17.151 39.8679 17.1495 37.0634 17.1517C36.7643 17.1519 36.4653 17.1521 36.1662 17.1524C36.0191 17.1525 35.8719 17.1526 35.7203 17.1527C34.6835 17.1533 33.6467 17.1523 32.6098 17.1506C31.2143 17.1486 29.8188 17.15 28.4233 17.1541C27.9105 17.155 27.3978 17.1547 26.8851 17.1532C26.1863 17.1512 25.4876 17.1537 24.7888 17.1572C24.585 17.1556 24.3811 17.154 24.1711 17.1524C23.1311 17.1627 22.3564 17.1809 21.5376 17.956Z" fill="#2EA4AA"/>
<path d="M52.4563 21.812C53.2052 22.3928 53.5914 23.1177 54.0532 23.9661C54.1962 24.2204 54.1962 24.2204 54.3421 24.4799C54.9939 25.648 55.6176 26.8322 56.2089 28.037C56.2998 28.2188 56.3908 28.4006 56.4845 28.588C56.5698 28.8012 56.655 29.0144 56.7429 29.234C57.1232 29.856 57.1232 29.856 57.9233 29.9548C58.2309 29.982 58.5389 30.0037 58.8471 30.0203C60.2051 30.1034 61.049 30.3828 62.1988 31.1869C62.1988 31.3428 62.1988 31.4987 62.1988 31.6594C62.4163 31.7374 62.6339 31.8153 62.8581 31.8957C63.7144 33.2365 64.2676 34.7478 64.1768 36.3847C63.9255 37.832 63.4667 38.998 62.6383 40.1649C62.7341 40.3223 62.8298 40.4798 62.9285 40.642C63.7271 41.9706 64.4783 43.3098 65.1675 44.7074C65.396 45.164 65.6338 45.6154 65.8784 46.0623C66.0013 46.2895 66.1243 46.5167 66.251 46.7507C66.4205 47.0568 66.4205 47.0568 66.5935 47.3691C66.8618 48.0897 66.8479 48.4202 66.5944 49.1429C66.1854 49.5669 65.748 49.8236 65.2565 50.1304C64.61 50.5451 64.61 50.5451 64.0449 51.0591C61.2141 53.3036 57.6811 53.3935 54.2928 53.8048C53.262 53.9318 52.2325 54.0705 51.2027 54.2074C50.4037 54.3133 49.6045 54.4176 48.8047 54.5168C48.5206 54.5525 48.2364 54.5882 47.9437 54.625C47.5677 54.6712 47.5677 54.6712 47.1841 54.7184C46.6022 54.7785 46.6022 54.7785 46.1548 55.0495C46.2506 55.224 46.3463 55.3985 46.445 55.5783C47.2158 56.9899 47.964 58.4102 48.6857 59.8514C49.1207 60.6943 49.5904 61.5121 50.0671 62.3285C50.7762 63.7215 50.7167 65.2972 50.3169 66.7889C49.6864 67.9476 48.8892 68.7968 47.6933 69.2253C45.9545 69.3779 44.798 69.2398 43.4076 68.044C42.9255 67.4221 42.6144 66.8861 42.2657 66.177C41.3878 64.4204 40.4392 62.7103 39.4919 60.9963C39.2926 60.6324 39.2926 60.6324 39.0892 60.2612C38.9687 60.0426 38.8482 59.8241 38.724 59.5989C38.4625 59.066 38.4625 59.066 38.4625 58.5935C38.2619 58.6958 38.2619 58.6958 38.0573 58.8002C35.824 59.817 33.4219 59.995 31.1273 59.0808C29.2182 58.0867 27.6514 56.6246 26.7918 54.5142C25.8896 51.5623 25.9826 49.0871 27.2408 46.3207C28.5619 44.2134 30.3023 43.0899 32.3499 41.8926C32.858 41.5938 33.3643 41.2921 33.8703 40.989C34.0927 40.8588 34.3152 40.7285 34.5444 40.5943C35.4571 39.9635 36.1041 39.2425 36.7043 38.2748C36.8493 38.2748 36.9944 38.2748 37.1438 38.2748C37.2051 38.1353 37.2664 37.9958 37.3296 37.852C37.5654 37.3667 37.8163 36.9649 38.1277 36.5333C38.2918 36.3043 38.2918 36.3043 38.4592 36.0707C38.5782 35.9063 38.6971 35.7419 38.8196 35.5725C39.0781 35.2123 39.3365 34.8521 39.5949 34.4918C39.732 34.301 39.8691 34.1103 40.0103 33.9137C40.6056 33.0828 41.1964 32.2483 41.7869 31.4135C42.0887 30.9871 42.391 30.5612 42.6939 30.1356C43.3352 29.2343 43.9739 28.3326 44.5914 27.4122C45.6786 25.8033 46.7317 24.6061 48.3526 23.6264C48.4918 23.5413 48.631 23.4562 48.7745 23.3685C49.2395 23.088 49.7083 22.8167 50.1795 22.5485C50.3294 22.4607 50.4793 22.3729 50.6338 22.2824C51.2748 21.9341 51.7342 21.7189 52.4563 21.812ZM50.3169 26.1072C50.0751 26.2717 50.0751 26.2717 49.8284 26.4394C49.704 26.5247 49.5797 26.61 49.4515 26.6979C49.8144 28.1486 50.5181 29.3783 51.2098 30.67C51.3384 30.9123 51.467 31.1546 51.5995 31.4042C52.6983 33.4688 53.8159 35.521 54.946 37.566C55.3148 38.2334 55.6835 38.9009 56.0518 39.5686C56.2952 40.0099 56.539 40.451 56.7832 40.8917C57.4849 42.1635 58.1545 43.4496 58.8089 44.7501C59.2497 45.6129 59.7176 46.4562 60.1933 47.2971C60.2817 47.4544 60.3701 47.6117 60.4611 47.7738C60.6736 48.1517 60.8866 48.5292 61.0999 48.9067C61.8251 48.5168 62.5504 48.127 63.2977 47.7253C62.8748 46.7971 62.427 45.8978 61.9378 45.0083C61.3586 43.9492 60.7862 42.8864 60.2207 41.8187C59.6946 40.8262 59.1647 39.8363 58.6273 38.8507C58.14 37.9564 57.6588 37.0588 57.1824 36.1576C56.0813 34.0749 54.9721 32.0061 53.7913 29.9742C53.2908 29.0907 52.8318 28.1868 52.3799 27.2738C52.078 26.6763 51.7696 26.09 51.4295 25.5165C51.0121 25.5165 50.6583 25.8742 50.3169 26.1072ZM47.0339 29.0605C46.6546 29.5818 46.2862 30.1077 45.9213 30.6405C45.6814 30.9877 45.4413 31.3347 45.201 31.6815C45.0068 31.962 45.0068 31.962 44.8088 32.2482C44.0823 33.2925 43.3463 34.3288 42.6108 35.3658C42.462 35.5767 42.3131 35.7877 42.1597 36.0051C41.5037 36.933 40.845 37.856 40.1598 38.7593C40.0549 38.8993 39.9499 39.0394 39.8418 39.1837C39.5697 39.545 39.294 39.9031 39.018 40.2609C38.6324 40.8406 38.6324 40.8406 38.6977 41.468C38.9277 42.1287 39.2068 42.6919 39.5477 43.2954C39.6854 43.5424 39.823 43.7894 39.9649 44.0439C40.0408 44.1786 40.1166 44.3133 40.1948 44.4521C40.653 45.269 41.1028 46.0913 41.5532 46.9132C41.647 47.0841 41.7409 47.255 41.8376 47.4312C42.4912 48.6253 43.1193 49.8316 43.7243 51.0552C43.9257 51.4935 43.9257 51.4935 44.1768 51.7418C46.653 51.7192 49.1625 51.2438 51.6145 50.908C52.3274 50.8108 53.0407 50.7163 53.754 50.6219C54.2089 50.56 54.6637 50.4981 55.1186 50.4359C55.331 50.4081 55.5435 50.3802 55.7624 50.3516C55.9599 50.324 56.1574 50.2964 56.3609 50.268C56.5338 50.2446 56.7068 50.2211 56.8849 50.197C57.3944 50.081 57.789 49.8863 58.2427 49.6154C58.1628 49.475 58.0829 49.3346 58.0006 49.19C57.418 48.1574 56.851 47.1209 56.3196 46.0567C55.1795 43.786 53.9372 41.574 52.6933 39.3675C52.1433 38.3866 51.6336 37.3858 51.1273 36.3782C50.517 35.1779 49.8804 33.9937 49.2465 32.8076C48.8376 32.0416 48.4304 31.2745 48.0229 30.5076C47.8741 30.2277 47.7253 29.9477 47.5765 29.6678C47.47 29.4674 47.3635 29.267 47.2537 29.0605C47.1812 29.0605 47.1087 29.0605 47.0339 29.0605ZM58.9021 33.077C59.2665 34.5018 59.9042 35.8082 60.8801 36.8572C61.1829 36.5842 61.1829 36.5842 61.1411 35.8383C61.1137 34.8346 61.1137 34.8346 60.6603 34.022C59.8361 33.3671 59.8361 33.3671 58.9021 33.077ZM33.6823 44.6982C33.4619 44.8348 33.2414 44.9714 33.0144 45.1121C31.9107 45.8084 30.9479 46.4432 30.1108 47.4891C29.9961 47.6279 29.8814 47.7668 29.7632 47.9099C28.8164 49.3316 28.8041 50.7522 29.0119 52.4506C29.4006 54.0233 30.4261 55.0885 31.6493 55.9946C32.465 56.4265 33.1332 56.5371 34.0394 56.5409C34.2564 56.5449 34.4735 56.5488 34.697 56.5529C36.3409 56.348 37.7964 55.2672 39.218 54.4146C39.4207 54.2938 39.6234 54.173 39.8323 54.0486C40.3284 53.7529 40.8242 53.4565 41.3196 53.1594C41.3196 52.3121 41.1344 52.0343 40.729 51.3136C40.591 51.0657 40.453 50.8178 40.3109 50.5623C40.2296 50.4174 40.1483 50.2726 40.0646 50.1233C39.5998 49.2904 39.1422 48.4529 38.6833 47.6163C38.3091 46.934 37.9344 46.2521 37.5593 45.5703C37.4529 45.3768 37.3464 45.1833 37.2368 44.9839C37.1336 44.797 37.0304 44.6102 36.924 44.4176C36.8067 44.1989 36.6893 43.9803 36.5684 43.7549C36.4682 43.5838 36.368 43.4126 36.2647 43.2363C35.4613 43.2363 34.3599 44.2708 33.6823 44.6982ZM41.7317 56.349C41.5725 56.4586 41.4133 56.5682 41.2492 56.6812C41.1274 56.7665 41.0056 56.8518 40.8801 56.9396C41.7135 58.7567 42.6431 60.5137 43.6256 62.2417C44.0994 63.106 44.5242 63.9967 44.9477 64.8904C45.2972 65.4816 45.5957 65.7989 46.1548 66.1539C46.8955 66.097 47.1632 66.015 47.6933 65.4451C47.7223 63.9783 47.094 63.0662 46.3514 61.8744C45.9594 61.2323 45.6127 60.5845 45.2757 59.9077C44.7903 58.9371 44.2985 57.9716 43.7922 57.0135C43.6664 56.7738 43.5406 56.5341 43.411 56.2871C43.3011 56.1126 43.1911 55.9381 43.0779 55.7583C42.4899 55.7583 42.2228 56.0084 41.7317 56.349Z" fill="#2EA4AA"/>
<path d="M62.2663 19.0339C65.4351 19.1446 68.4568 21.647 70.5518 24.0269C73.671 27.9136 74.9633 32.2516 74.7251 37.3296C74.451 40.1185 74.451 40.1185 73.6262 41.3461C72.9943 41.6119 72.9943 41.6119 72.3075 41.5824C71.6619 41.1098 71.6619 41.1098 71.2086 40.401C71.2507 40.0204 71.2962 39.6399 71.3587 39.2625C71.7559 36.3257 71.7594 32.9384 70.5492 30.2417C70.4773 30.0462 70.4053 29.8506 70.3312 29.6492C69.1455 26.6814 66.7283 24.3881 64.0133 23.1058C63.6415 22.9471 63.2681 22.7923 62.893 22.6425C62.0997 22.3131 61.478 21.9077 60.8789 21.2637C61.0153 19.2116 61.0153 19.2116 62.2663 19.0339Z" fill="#2EA4AA"/>
<path d="M61.6644 24.6296C63.0274 25.085 64.3104 25.8495 65.4942 26.6979C65.4942 26.8538 65.4942 27.0097 65.4942 27.1704C65.6884 27.2581 65.6884 27.2581 65.8866 27.3476C67.402 28.267 68.4059 30.438 69.0107 32.1319C69.591 34.4289 69.7279 36.9358 69.0107 39.2198C68.7128 39.637 68.7128 39.637 68.3514 39.9286C67.011 40.083 67.011 40.083 66.4377 39.6362C66.0699 39.0972 66.0858 38.803 66.1124 38.14C66.1175 37.9281 66.1226 37.7161 66.1278 37.4977C66.1448 37.0565 66.1619 36.6154 66.1793 36.1743C66.2335 33.9045 65.6984 31.7896 64.2683 30.0582C63.1857 28.9409 61.9847 28.34 60.6058 27.7278C59.9997 27.4067 59.9997 27.4067 59.5602 26.6979C59.4505 25.9319 59.5023 25.615 59.8898 24.9554C60.5294 24.5085 60.919 24.4863 61.6644 24.6296Z" fill="#2EA4AA"/>
<path d="M13.4198 11.2372C13.599 11.2355 13.7782 11.2338 13.9628 11.2321C15.277 11.2472 15.277 11.2472 15.7645 11.6722C16.2892 12.3816 16.1208 13.0663 16.0434 13.9395C15.3393 14.4441 15.16 14.4666 14.3539 14.4415C14.1762 14.4373 13.9986 14.433 13.8156 14.4286C13.6129 14.4204 13.6129 14.4204 13.4061 14.412C13.4137 14.5573 13.4214 14.7025 13.4292 14.8522C13.4352 15.0432 13.4411 15.2341 13.4473 15.4309C13.4549 15.62 13.4626 15.8091 13.4704 16.004C13.4061 16.5384 13.4061 16.5384 13.1219 16.9564C12.4987 17.4393 11.9478 17.3323 11.2083 17.2472C10.7609 16.8867 10.5755 16.675 10.4601 16.0825C10.4531 15.5303 10.4483 14.979 10.4528 14.4268C10.4484 14.235 10.444 14.0433 10.4395 13.8458C10.4401 12.9902 10.4685 12.4358 10.87 11.6857C11.7094 11.1665 12.4685 11.212 13.4198 11.2372Z" fill="#2EA4AA"/>
<path d="M11.978 68.6494C12.7472 68.7528 12.7472 68.7528 13.1224 69.0444C13.4911 69.5857 13.4746 69.9057 13.4478 70.5691C13.4418 70.76 13.4359 70.951 13.4297 71.1477C13.4221 71.293 13.4144 71.4383 13.4066 71.5879C13.5417 71.5825 13.6768 71.577 13.8161 71.5713C13.9937 71.5671 14.1713 71.5628 14.3544 71.5584C14.5303 71.5529 14.7062 71.5474 14.8875 71.5418C15.3846 71.5879 15.3846 71.5879 16.0439 72.0605C16.1935 73.7484 16.1935 73.7484 15.765 74.3277C15.0797 74.9252 14.2687 74.7707 13.4203 74.7627C13.242 74.7675 13.0636 74.7722 12.8799 74.777C12.079 74.7763 11.5689 74.7483 10.8705 74.3059C10.4095 73.4565 10.4299 72.6607 10.4533 71.7061C10.4517 71.5267 10.4502 71.3473 10.4485 71.1625C10.4567 70.3881 10.5008 69.7978 10.837 69.1063C11.2088 68.7528 11.2088 68.7528 11.978 68.6494Z" fill="#2EA4AA"/>
<path d="M25.3714 4.16414C25.563 4.15835 25.7547 4.15257 25.9522 4.1466C27.3498 4.13968 27.3498 4.13968 27.9358 4.67728C28.2349 5.46922 28.1087 6.03848 27.9126 6.85164C27.0723 7.45385 26.3731 7.41101 25.3989 7.41277C25.231 7.41855 25.0631 7.42434 24.8902 7.4303C24.0662 7.43493 23.6458 7.42198 22.9581 6.89963C22.6379 6.37911 22.6379 6.37911 22.6653 5.52266C23.0619 3.87827 24.0191 4.16628 25.3714 4.16414Z" fill="#2EA4AA"/>
</g>
<defs>
<clipPath id="clip0_1143_13743">
<rect width="80" height="86" fill="white"/>
</clipPath>
</defs>
</svg>
