<svg width="21" height="21" viewBox="0 0 21 21" fill="none" xmlns="http://www.w3.org/2000/svg">
<g clip-path="url(#clip0_68_217)">
<path d="M14.5714 1.71429C15.8217 1.71429 17.0208 2.21097 17.9049 3.09507C18.789 3.97917 19.2857 5.17827 19.2857 6.42857V14.5714C19.2857 15.8217 18.789 17.0208 17.9049 17.9049C17.0208 18.789 15.8217 19.2857 14.5714 19.2857H6.42857C5.17827 19.2857 3.97917 18.789 3.09507 17.9049C2.21097 17.0208 1.71429 15.8217 1.71429 14.5714V6.42857C1.71429 5.17827 2.21097 3.97917 3.09507 3.09507C3.97917 2.21097 5.17827 1.71429 6.42857 1.71429H14.5714ZM14.5714 0H6.42857C4.72517 0.00508734 3.09299 0.684015 1.8885 1.8885C0.684015 3.09299 0.00508734 4.72517 0 6.42857V14.5714C0.00508734 16.2748 0.684015 17.907 1.8885 19.1115C3.09299 20.316 4.72517 20.9949 6.42857 21H14.5714C16.2748 20.9949 17.907 20.316 19.1115 19.1115C20.316 17.907 20.9949 16.2748 21 14.5714V6.42857C20.9949 4.72517 20.316 3.09299 19.1115 1.8885C17.907 0.684015 16.2748 0.00508734 14.5714 0Z" fill="#E4F2F2"/>
<path d="M16.0781 3.9375C15.8834 3.9375 15.6931 3.99523 15.5312 4.1034C15.3694 4.21156 15.2432 4.3653 15.1687 4.54517C15.0942 4.72504 15.0747 4.92297 15.1127 5.11392C15.1506 5.30487 15.2444 5.48027 15.3821 5.61793C15.5197 5.7556 15.6951 5.84935 15.8861 5.88733C16.077 5.92532 16.275 5.90582 16.4548 5.83132C16.6347 5.75681 16.7884 5.63064 16.8966 5.46876C17.0048 5.30688 17.0625 5.11657 17.0625 4.92187C17.0625 4.7926 17.037 4.6646 16.9876 4.54517C16.9381 4.42574 16.8656 4.31722 16.7742 4.22582C16.6828 4.13441 16.5743 4.0619 16.4548 4.01243C16.3354 3.96296 16.2074 3.9375 16.0781 3.9375Z" fill="#E4F2F2"/>
<path d="M10.4898 6.88552C11.2048 6.88512 11.9039 7.09681 12.4986 7.49382C13.0934 7.89083 13.557 8.45532 13.8308 9.11586C14.1046 9.7764 14.1764 10.5033 14.037 11.2047C13.8976 11.906 13.5533 12.5502 13.0477 13.0558C12.542 13.5615 11.8978 13.9057 11.1965 14.0451C10.4951 14.1845 9.76822 14.1128 9.10768 13.839C8.44713 13.5651 7.88265 13.1015 7.48564 12.5068C7.08863 11.9121 6.87693 11.213 6.87734 10.498C6.87896 9.54038 7.26008 8.62249 7.93719 7.94537C8.6143 7.26826 9.5322 6.88715 10.4898 6.88552ZM10.4898 5.25001C9.45178 5.25203 8.43767 5.56171 7.57561 6.1399C6.71356 6.7181 6.04224 7.53886 5.64651 8.49847C5.25078 9.45807 5.14839 10.5135 5.35228 11.5312C5.55617 12.549 6.05719 13.4835 6.79203 14.2166C7.52686 14.9498 8.46253 15.4486 9.48078 15.6501C10.499 15.8516 11.5542 15.7468 12.5129 15.3488C13.4715 14.9508 14.2907 14.2776 14.8669 13.4142C15.4431 12.5508 15.7504 11.536 15.75 10.498C15.7497 9.80784 15.6134 9.12453 15.3488 8.48714C15.0842 7.84975 14.6965 7.27078 14.208 6.78336C13.7194 6.29593 13.1395 5.90962 12.5015 5.64651C11.8635 5.3834 11.1799 5.24867 10.4898 5.25001Z" fill="#E4F2F2"/>
</g>
<defs>
<clipPath id="clip0_68_217">
<rect width="21" height="21" fill="white"/>
</clipPath>
</defs>
</svg>
