<svg width="24" height="24" viewBox="0 0 24 24" fill="none" xmlns="http://www.w3.org/2000/svg">
<g clip-path="url(#clip0_68_222)">
<path d="M17.3965 23.8285H6.60339C4.89807 23.8267 3.26312 23.1485 2.05728 21.9426C0.85144 20.7368 0.173202 19.1018 0.171387 17.3965V6.60339C0.173202 4.89807 0.85144 3.26312 2.05728 2.05728C3.26312 0.85144 4.89807 0.173202 6.60339 0.171387H17.3965C19.1018 0.173202 20.7368 0.85144 21.9426 2.05728C23.1485 3.26312 23.8267 4.89807 23.8285 6.60339V17.3965C23.8267 19.1018 23.1485 20.7368 21.9426 21.9426C20.7368 23.1485 19.1018 23.8267 17.3965 23.8285ZM6.60339 1.88567C5.35273 1.88749 4.15381 2.38511 3.26946 3.26946C2.38511 4.15381 1.88749 5.35273 1.88567 6.60339V17.3965C1.88749 18.6472 2.38511 19.8461 3.26946 20.7305C4.15381 21.6148 5.35273 22.1124 6.60339 22.1142H17.3965C18.6472 22.1124 19.8461 21.6148 20.7305 20.7305C21.6148 19.8461 22.1124 18.6472 22.1142 17.3965V6.60339C22.1124 5.35273 21.6148 4.15381 20.7305 3.26946C19.8461 2.38511 18.6472 1.88749 17.3965 1.88567H6.60339Z" fill="#E4F2F2"/>
<path d="M7.17259 10.1621H7.16574C6.51814 10.1621 5.99316 10.6871 5.99316 11.3347V16.505C5.99316 17.1526 6.51814 17.6775 7.16574 17.6775H7.17259C7.82019 17.6775 8.34516 17.1526 8.34516 16.505V11.3347C8.34516 10.6871 7.82019 10.1621 7.17259 10.1621Z" fill="#E4F2F2"/>
<path d="M7.1726 6.32229C6.93875 6.32093 6.70978 6.38912 6.51477 6.5182C6.31977 6.64727 6.16754 6.8314 6.07742 7.04719C5.9873 7.26298 5.96337 7.50069 6.00866 7.73011C6.05395 7.95954 6.16642 8.17032 6.33178 8.33568C6.49713 8.50103 6.70792 8.6135 6.93734 8.65879C7.16676 8.70408 7.40447 8.68015 7.62026 8.59003C7.83605 8.49991 8.02018 8.34768 8.14926 8.15268C8.27833 7.95768 8.34652 7.7287 8.34517 7.49486C8.34337 7.18443 8.21925 6.88722 7.99974 6.66771C7.78023 6.4482 7.48303 6.32409 7.1726 6.32229Z" fill="#E4F2F2"/>
<path d="M13.7143 11.7668C13.9429 11.7025 14.1836 11.6939 14.4162 11.7416C14.6488 11.7893 14.8666 11.892 15.0514 12.0411C15.2669 12.2938 15.429 12.5875 15.528 12.9045C15.627 13.2215 15.6608 13.5552 15.6274 13.8857V16.5051C15.6293 16.8167 15.7543 17.1149 15.9753 17.3346C16.1963 17.5543 16.4952 17.6777 16.8069 17.6777C17.1179 17.6777 17.4161 17.5541 17.636 17.3342C17.8559 17.1143 17.9794 16.8161 17.9794 16.5051V13.0765C17.9752 12.3516 17.7763 11.6411 17.4034 11.0194L17.3692 10.9782C17.108 10.6498 16.775 10.3857 16.3958 10.2062C16.0166 10.0267 15.6012 9.93659 15.1817 9.9428C14.7175 9.90946 14.2527 9.99979 13.8347 10.2046C13.4167 10.4093 13.0605 10.7212 12.8023 11.1085L12.4869 11.5679V11.2937C12.4869 10.9827 12.3633 10.6844 12.1434 10.4645C11.9235 10.2446 11.6253 10.1211 11.3143 10.1211C11.0033 10.1211 10.7051 10.2446 10.4852 10.4645C10.2653 10.6844 10.1417 10.9827 10.1417 11.2937V16.4639C10.1417 16.7749 10.2653 17.0732 10.4852 17.2931C10.7051 17.513 11.0033 17.6365 11.3143 17.6365C11.4685 17.6374 11.6214 17.6077 11.7641 17.5491C11.9068 17.4905 12.0364 17.4042 12.1455 17.2951C12.2545 17.186 12.3409 17.0564 12.3995 16.9137C12.4581 16.7711 12.4878 16.6182 12.4869 16.4639V13.0285C12.9463 11.8628 13.7143 11.7737 13.7143 11.7668Z" fill="#E4F2F2"/>
</g>
<defs>
<clipPath id="clip0_68_222">
<rect width="24" height="24" fill="white"/>
</clipPath>
</defs>
</svg>
