<svg width="18" height="18" viewBox="0 0 18 18" fill="none" xmlns="http://www.w3.org/2000/svg">
<path d="M16.875 2.625H1.125C0.826631 2.625 0.540483 2.74353 0.329505 2.9545C0.118526 3.16548 0 3.45163 0 3.75L0 14.25C0 14.5484 0.118526 14.8345 0.329505 15.0455C0.540483 15.2565 0.826631 15.375 1.125 15.375H16.875C17.1734 15.375 17.4595 15.2565 17.6705 15.0455C17.8815 14.8345 18 14.5484 18 14.25V3.75C18 3.45163 17.8815 3.16548 17.6705 2.9545C17.4595 2.74353 17.1734 2.625 16.875 2.625ZM16.635 3.375L9 9.2775L1.365 3.375H16.635ZM0.75 14.0963V3.8475L6.52875 8.31375L0.75 14.0963ZM1.27875 14.625L7.125 8.77875L8.7675 10.05C8.83307 10.1005 8.9135 10.1278 8.99625 10.1278C9.079 10.1278 9.15943 10.1005 9.225 10.05L10.875 8.77875L16.7213 14.625H1.27875ZM17.25 14.0963L11.4713 8.31375L17.25 3.8475V14.0963Z" fill="#0C7379"/>
</svg>
