<svg width="20" height="20" viewBox="0 0 20 20" fill="none" xmlns="http://www.w3.org/2000/svg">
<path d="M13.6223 17.5807C13.0112 17.5761 12.4028 17.4994 11.8098 17.3522C9.76172 16.858 7.65273 15.6045 5.87226 13.8225C4.09179 12.0404 2.83672 9.93106 2.34257 7.88497C1.82226 5.73263 2.19336 3.89122 3.38633 2.69825L3.72695 2.35763C4.036 2.0492 4.45478 1.87598 4.8914 1.87598C5.32802 1.87598 5.74681 2.0492 6.05586 2.35763L8.01328 4.31466C8.3219 4.6236 8.49525 5.04243 8.49525 5.47911C8.49525 5.91579 8.3219 6.33462 8.01328 6.64356L6.85703 7.79942C7.41132 8.77208 8.16523 9.74552 9.05625 10.6365C9.94726 11.5275 10.9215 12.2818 11.8937 12.8361L13.0496 11.6799C13.2025 11.5269 13.384 11.4056 13.5838 11.3228C13.7836 11.24 13.9978 11.1974 14.2141 11.1974C14.4303 11.1974 14.6445 11.24 14.8443 11.3228C15.0441 11.4056 15.2256 11.5269 15.3785 11.6799L17.3355 13.6369C17.6442 13.9458 17.8176 14.3645 17.8176 14.8012C17.8176 15.2378 17.6442 15.6566 17.3355 15.9654L16.9945 16.3061C16.1535 17.1486 14.9895 17.5807 13.6223 17.5807ZM4.8914 3.04708C4.82903 3.04677 4.76723 3.05891 4.70961 3.08279C4.652 3.10667 4.59972 3.1418 4.55586 3.18614L4.21484 3.52677C3.32148 4.42013 3.06054 5.87052 3.48007 7.60841C3.92422 9.44942 5.06757 11.3623 6.69922 12.9936C8.33086 14.6248 10.2434 15.767 12.0848 16.2127C13.823 16.6322 15.2727 16.3713 16.166 15.4779L16.5066 15.1373C16.5956 15.0482 16.6456 14.9275 16.6456 14.8016C16.6456 14.6757 16.5956 14.5549 16.5066 14.4658L14.55 12.5088C14.4609 12.4198 14.3402 12.3698 14.2143 12.3698C14.0883 12.3698 13.9676 12.4198 13.8785 12.5088L12.4133 13.974C12.3254 14.062 12.2117 14.1197 12.0888 14.1388C11.9659 14.1579 11.8402 14.1374 11.7297 14.0803C10.5285 13.4592 9.31758 12.5549 8.22773 11.465C7.13789 10.3752 6.23554 9.16505 5.61289 7.96388C5.55571 7.85344 5.53514 7.72768 5.55418 7.60479C5.57321 7.4819 5.63084 7.36825 5.71875 7.28028L7.18437 5.81505C7.27337 5.72598 7.32336 5.60522 7.32336 5.47931C7.32336 5.35339 7.27337 5.23263 7.18437 5.14356L5.22734 3.18614C5.18334 3.14188 5.13098 3.1068 5.07332 3.08293C5.01565 3.05905 4.95382 3.04687 4.8914 3.04708Z" fill="#0C7379"/>
<path d="M14.248 10.5365C14.0926 10.5365 13.9436 10.4748 13.8337 10.3649C13.7238 10.255 13.6621 10.106 13.6621 9.95059C13.661 8.92267 13.2522 7.93717 12.5253 7.21028C11.7985 6.4834 10.8131 6.07448 9.78516 6.07324C9.62976 6.07324 9.48072 6.01151 9.37084 5.90162C9.26095 5.79174 9.19922 5.6427 9.19922 5.4873C9.19922 5.3319 9.26095 5.18287 9.37084 5.07298C9.48072 4.9631 9.62976 4.90137 9.78516 4.90137C12.5691 4.90137 14.834 7.16699 14.834 9.95059C14.834 10.106 14.7723 10.255 14.6624 10.3649C14.5525 10.4748 14.4034 10.5365 14.248 10.5365Z" fill="#0C7379"/>
<path d="M16.7246 10.5365C16.5692 10.5365 16.4202 10.4748 16.3103 10.3649C16.2004 10.255 16.1387 10.106 16.1387 9.95059C16.1387 6.44707 13.2871 3.59668 9.78516 3.59668C9.62976 3.59668 9.48072 3.53495 9.37084 3.42506C9.26095 3.31518 9.19922 3.16614 9.19922 3.01074C9.19922 2.85534 9.26095 2.70631 9.37084 2.59642C9.48072 2.48654 9.62976 2.4248 9.78516 2.4248C13.9348 2.4248 17.3105 5.80098 17.3105 9.95059C17.3105 10.106 17.2488 10.255 17.1389 10.3649C17.029 10.4748 16.88 10.5365 16.7246 10.5365Z" fill="#0C7379"/>
</svg>
